<svg width="801" height="238" viewBox="0 0 801 238" fill="none" xmlns="http://www.w3.org/2000/svg">
<path d="M794.905 209.562C794.905 212.546 794.316 215.501 793.173 218.257C792.03 221.014 790.355 223.518 788.243 225.627C786.131 227.736 783.625 229.409 780.866 230.548C778.107 231.688 775.151 232.273 772.166 232.27H28.0463C22.0152 232.277 16.2285 229.888 11.9588 225.629C7.68917 221.371 5.28618 215.591 5.27832 209.562V28.468C5.28618 22.4358 7.68822 16.6532 11.957 12.3899C16.2258 8.12671 22.0125 5.73133 28.0463 5.72977H772.16C775.147 5.72977 778.104 6.31795 780.863 7.46073C783.622 8.6035 786.129 10.2785 788.241 12.39C790.352 14.5015 792.027 17.0082 793.169 19.7669C794.312 22.5256 794.899 25.4823 794.899 28.468L794.905 209.562Z" fill="white"/>
<path d="M772.166 237.553H28.0463C20.6167 237.552 13.4911 234.603 8.23306 229.356C2.97506 224.108 0.0141366 216.989 0 209.562L0 28.4739C0.0109911 21.0426 2.96996 13.919 8.22779 8.66586C13.4856 3.41275 20.613 0.459092 28.0463 0.45282L772.16 0.45282C779.593 0.462222 786.718 3.41689 791.975 8.66932C797.233 13.9217 800.192 21.0435 800.207 28.4739V209.562C800.218 225.001 787.616 237.553 772.166 237.553Z" fill="#3C65F5"/>
<path d="M794.905 209.562C794.905 212.546 794.316 215.501 793.173 218.257C792.03 221.014 790.355 223.518 788.243 225.627C786.131 227.736 783.625 229.409 780.866 230.548C778.107 231.688 775.151 232.273 772.166 232.27H28.0463C22.0152 232.277 16.2285 229.888 11.9588 225.629C7.68917 221.371 5.28618 215.591 5.27832 209.562V28.468C5.28618 22.4358 7.68822 16.6532 11.957 12.3899C16.2258 8.12671 22.0125 5.73133 28.0463 5.72977H772.16C775.147 5.72977 778.104 6.31795 780.863 7.46073C783.622 8.6035 786.129 10.2785 788.241 12.39C790.352 14.5015 792.027 17.0082 793.169 19.7669C794.312 22.5256 794.899 25.4823 794.899 28.468L794.905 209.562Z" fill="#3C65F5"/>
<path d="M178.68 117.755C178.508 98.6453 194.331 89.3484 195.055 88.9155C186.094 75.8537 172.204 74.069 167.323 73.9267C155.657 72.6994 144.342 80.9053 138.399 80.9053C132.338 80.9053 123.187 74.0453 113.324 74.2469C100.632 74.4425 88.759 81.7887 82.2471 93.1964C68.8081 116.456 78.831 150.638 91.7065 169.439C98.1473 178.653 105.673 188.928 115.524 188.567C125.162 188.175 128.762 182.43 140.392 182.43C151.915 182.43 155.296 188.567 165.342 188.335C175.685 188.175 182.197 179.086 188.413 169.795C195.856 159.247 198.845 148.847 198.963 148.314C198.726 148.231 178.882 140.653 178.68 117.755ZM159.702 61.5585C164.886 55.078 168.432 46.2613 167.448 37.3143C159.945 37.6463 150.563 42.5023 145.16 48.8405C140.38 54.4258 136.11 63.5803 137.213 72.1895C145.64 72.8179 154.293 67.9383 159.702 61.5585Z" fill="white"/>
<path d="M772.166 0.452835H373.593L529.707 237.553H772.166C779.598 237.547 786.723 234.595 791.981 229.344C797.238 224.094 800.198 216.973 800.213 209.544V28.4739C800.2 21.0431 797.24 13.9204 791.983 8.66761C786.726 3.41484 779.599 0.460673 772.166 0.452835Z" fill="url(#paint0_linear_2_42)"/>
<path d="M318.271 187.244H304.803L297.425 164.067H271.781L264.753 187.244H251.64L277.053 108.339H292.746L318.271 187.244ZM295.201 154.344L288.529 133.74C287.823 131.635 286.495 126.678 284.549 118.875H284.312C283.529 122.231 282.278 127.188 280.564 133.74L274.005 154.344H295.201ZM383.497 158.097C383.497 167.773 380.87 175.422 375.609 181.037C370.9 186.035 365.047 188.531 358.066 188.531C350.529 188.531 345.108 185.845 341.816 180.461V210.315H329.172V149.049C329.172 142.971 329.012 136.74 328.704 130.348H339.824L340.529 139.367H340.767C344.983 132.572 351.383 129.174 359.97 129.174C366.684 129.174 372.288 131.825 376.772 137.131C381.25 142.45 383.497 149.434 383.497 158.097ZM370.616 158.559C370.616 153.021 369.37 148.456 366.868 144.857C364.134 141.116 360.462 139.242 355.86 139.242C352.741 139.242 349.906 140.286 347.373 142.343C344.835 144.418 343.174 147.128 342.398 150.484C342.051 151.739 341.854 153.03 341.81 154.332V163.824C341.81 167.957 343.08 171.449 345.618 174.307C348.156 177.153 351.454 178.582 355.51 178.582C360.273 178.582 363.979 176.738 366.63 173.08C369.287 169.41 370.616 164.571 370.616 158.559ZM448.955 158.097C448.955 167.773 446.327 175.422 441.067 181.037C436.352 186.035 430.504 188.531 423.518 188.531C415.98 188.531 410.559 185.845 407.268 180.461V210.315H394.623V149.049C394.623 142.971 394.463 136.74 394.155 130.348H405.275L405.981 139.367H406.218C410.429 132.572 416.828 129.174 425.421 129.174C432.129 129.174 437.734 131.825 442.229 137.131C446.701 142.45 448.955 149.434 448.955 158.097ZM436.067 158.559C436.067 153.021 434.816 148.456 432.313 144.857C429.579 141.116 425.92 139.242 421.317 139.242C418.198 139.242 415.363 140.286 412.819 142.343C410.28 144.418 408.626 147.128 407.849 150.484C407.463 152.049 407.256 153.324 407.256 154.332V163.824C407.256 167.957 408.531 171.449 411.057 174.307C413.596 177.147 416.893 178.582 420.962 178.582C425.73 178.582 429.437 176.738 432.082 173.08C434.739 169.41 436.067 164.571 436.067 158.559ZM522.139 165.111C522.139 171.829 519.791 177.289 515.123 181.505C509.987 186.106 502.817 188.412 493.625 188.412C485.132 188.412 478.323 186.776 473.187 183.497L476.111 172.961C481.656 176.246 487.747 177.882 494.378 177.882C499.146 177.882 502.853 176.803 505.498 174.663C508.149 172.516 509.489 169.647 509.489 166.065C509.489 162.858 508.38 160.172 506.204 157.984C504.015 155.802 500.397 153.768 495.315 151.901C481.496 146.748 474.581 139.212 474.581 129.299C474.581 122.824 477.025 117.524 481.9 113.379C486.775 109.241 493.239 107.171 501.281 107.171C508.463 107.171 514.447 108.422 519.198 110.919L516.025 121.223C511.553 118.804 506.506 117.595 500.86 117.595C496.4 117.595 492.901 118.692 490.398 120.874C488.293 122.824 487.225 125.202 487.225 128.024C487.225 131.137 488.441 133.722 490.861 135.75C492.96 137.617 496.792 139.651 502.331 141.833C509.127 144.572 514.121 147.762 517.318 151.426C520.538 155.091 522.139 159.662 522.139 165.111ZM564.052 139.835H550.115V167.459C550.115 174.485 552.57 177.989 557.492 177.989C559.752 177.989 561.626 177.799 563.109 177.402L563.459 187.001C560.968 187.932 557.688 188.401 553.626 188.401C548.632 188.401 544.73 186.877 541.912 183.829C539.107 180.782 537.696 175.677 537.696 168.49V139.811H529.393V130.325H537.696V119.907L550.115 116.16V130.325H564.052V139.835ZM626.811 158.328C626.811 167.073 624.308 174.254 619.314 179.869C614.089 185.649 607.138 188.531 598.474 188.531C590.111 188.531 583.463 185.762 578.505 180.23C573.547 174.686 571.068 167.702 571.068 159.277C571.068 150.46 573.63 143.238 578.736 137.623C583.854 132.003 590.746 129.192 599.411 129.192C607.761 129.192 614.469 131.967 619.545 137.505C624.397 142.877 626.811 149.814 626.811 158.328ZM613.704 158.618C613.704 153.407 612.577 148.936 610.317 145.195C607.666 140.677 603.871 138.418 598.954 138.418C593.889 138.418 590.005 140.677 587.359 145.195C585.094 148.936 583.967 153.484 583.967 158.856C583.967 164.073 585.094 168.556 587.359 172.285C590.094 176.803 593.907 179.062 598.847 179.062C603.681 179.062 607.47 176.756 610.21 172.172C612.535 168.342 613.704 163.842 613.704 158.618ZM667.928 141.465C666.613 141.228 665.279 141.111 663.943 141.116C659.495 141.116 656.055 142.788 653.635 146.155C651.536 149.12 650.48 152.867 650.48 157.391V187.244H637.836V148.266C637.847 142.294 637.724 136.321 637.468 130.354H648.481L648.944 141.24H649.294C650.634 137.499 652.734 134.481 655.616 132.222C658.254 130.248 661.46 129.179 664.755 129.174C665.924 129.174 666.979 129.257 667.916 129.406L667.928 141.465ZM724.477 156.105C724.509 158.026 724.355 159.946 724.015 161.838H686.082C686.224 167.459 688.063 171.763 691.586 174.728C694.782 177.372 698.916 178.7 703.993 178.7C709.609 178.7 714.733 177.811 719.341 176.015L721.322 184.784C715.937 187.132 709.579 188.3 702.243 188.3C693.418 188.3 686.491 185.703 681.45 180.521C676.421 175.333 673.9 168.36 673.9 159.626C673.9 151.053 676.243 143.908 680.934 138.21C685.845 132.127 692.481 129.085 700.832 129.085C709.034 129.085 715.243 132.127 719.46 138.21C722.799 143.031 724.477 149.007 724.477 156.105ZM712.42 152.826C712.509 149.073 711.679 145.841 709.965 143.108C707.777 139.586 704.408 137.831 699.895 137.831C695.761 137.831 692.392 139.544 689.83 142.983C687.725 145.717 686.473 149.001 686.088 152.814L712.42 152.826Z" fill="white"/>
<path d="M268.133 80.4428C264.616 80.4428 261.574 80.2709 259.041 79.9803V41.8323C262.583 41.2853 266.163 41.0157 269.746 41.0259C284.247 41.0259 290.925 48.1587 290.925 59.7857C290.925 73.1974 283.037 80.4428 268.133 80.4428ZM270.256 45.9175C268.299 45.9175 266.633 46.036 265.251 46.3206V75.32C265.998 75.4386 267.433 75.492 269.45 75.492C278.951 75.492 284.36 70.0846 284.36 59.9577C284.36 50.9276 279.467 45.9175 270.256 45.9175ZM311.736 80.7333C303.563 80.7333 298.267 74.6323 298.267 66.3493C298.267 57.7164 303.676 51.562 312.198 51.562C320.252 51.562 325.667 57.3725 325.667 65.8927C325.667 74.6323 320.086 80.7333 311.736 80.7333ZM311.973 56.1037C307.483 56.1037 304.607 60.3015 304.607 66.1714C304.607 71.9286 307.543 76.1264 311.914 76.1264C316.285 76.1264 319.22 71.638 319.22 66.0528C319.22 60.3608 316.344 56.1037 311.973 56.1037ZM372.27 52.1371L363.523 80.0989H357.823L354.2 67.9561C353.299 64.9858 352.548 61.972 351.952 58.926H351.833C351.377 61.9736 350.511 65.0271 349.591 67.9561L345.737 80.0989H339.978L331.746 52.1371H338.133L341.3 65.4302C342.048 68.5964 342.676 71.5847 343.198 74.407H343.317C343.773 72.0531 344.521 69.1122 345.618 65.4895L349.591 52.143H354.656L358.458 65.2049C359.377 68.3711 360.124 71.478 360.706 74.4129H360.872C361.275 71.5373 361.91 68.4837 362.769 65.2049L366.168 52.143L372.27 52.1371ZM404.474 80.0989H398.259V64.0428C398.259 59.0979 396.361 56.6195 392.619 56.6195C388.936 56.6195 386.403 59.7857 386.403 63.4677V80.0989H380.188V60.1296C380.188 57.6571 380.129 55.0068 379.957 52.1312H385.425L385.715 56.4476H385.887C387.56 53.4593 390.952 51.562 394.754 51.562C400.625 51.562 404.48 56.0503 404.48 63.355L404.474 80.0989ZM421.614 80.0989H415.393V39.3065H421.614V80.0989ZM444.275 80.7333C436.109 80.7333 430.807 74.6323 430.807 66.3493C430.807 57.7164 436.215 51.562 444.732 51.562C452.792 51.562 458.201 57.3725 458.201 65.8927C458.206 74.6323 452.62 80.7333 444.275 80.7333ZM444.506 56.1037C440.017 56.1037 437.141 60.3015 437.141 66.1714C437.141 71.9286 440.082 76.1264 444.441 76.1264C448.818 76.1264 451.748 71.638 451.748 66.0528C451.754 60.3608 448.883 56.1037 444.506 56.1037ZM482.706 80.0989L482.255 76.8794H482.089C480.192 79.4704 477.422 80.7333 473.911 80.7333C468.899 80.7333 465.341 77.2233 465.341 72.5037C465.341 65.6022 471.325 62.0328 481.686 62.0328V61.517C481.686 57.835 479.735 55.9911 475.88 55.9911C473.122 55.9911 470.702 56.6848 468.573 58.0663L467.31 53.9811C469.896 52.3684 473.122 51.562 476.912 51.562C484.219 51.562 487.907 55.4159 487.907 63.1297V73.4286C487.907 76.2509 488.032 78.4388 488.311 80.1049L482.706 80.0989ZM481.852 66.1714C474.949 66.1714 471.485 67.8434 471.485 71.81C471.485 74.7449 473.27 76.1798 475.749 76.1798C478.911 76.1798 481.852 73.7666 481.852 70.4878V66.1714ZM518.089 80.0989L517.798 75.6106H517.626C515.841 79.002 512.84 80.7333 508.647 80.7333C501.904 80.7333 496.91 74.8042 496.91 66.4619C496.91 57.7164 502.088 51.5561 509.157 51.5561C512.899 51.5561 515.55 52.819 517.045 55.3566H517.17V39.3065H523.391V72.563C523.391 75.2667 523.456 77.7984 523.622 80.0989H518.089ZM517.17 63.6456C517.17 59.7323 514.578 56.3942 510.622 56.3942C506.014 56.3942 503.197 60.4794 503.197 66.2307C503.197 71.8693 506.121 75.7292 510.498 75.7292C514.406 75.7292 517.17 72.3318 517.17 68.3059V63.6456ZM562.836 80.7333C554.669 80.7333 549.373 74.6323 549.373 66.3493C549.373 57.7164 554.782 51.562 563.299 51.562C571.358 51.562 576.767 57.3725 576.767 65.8927C576.773 74.6323 571.192 80.7333 562.836 80.7333ZM563.067 56.1037C558.584 56.1037 555.707 60.3015 555.707 66.1714C555.707 71.9286 558.643 76.1264 563.008 76.1264C567.385 76.1264 570.315 71.638 570.315 66.0528C570.326 60.3608 567.45 56.1037 563.067 56.1037ZM610.193 80.0989H603.971V64.0428C603.971 59.0979 602.074 56.6195 598.331 56.6195C594.648 56.6195 592.122 59.7857 592.122 63.4677V80.0989H585.9V60.1296C585.9 57.6571 585.841 55.0068 585.669 52.1312H591.137L591.428 56.4476H591.6C593.266 53.4593 596.665 51.5561 600.46 51.5561C606.332 51.5561 610.193 56.0444 610.193 63.3491V80.0989ZM652.01 56.7974H645.172V70.3751C645.172 73.8318 646.37 75.5572 648.79 75.5572C649.887 75.5572 650.806 75.4386 651.547 75.2667L651.719 79.9863C650.516 80.4487 648.902 80.68 646.898 80.68C641.999 80.68 639.069 77.9763 639.069 70.8969V56.7974H634.989V52.1371H639.069V47.0143L645.172 45.1704V52.1312H652.01V56.7974ZM684.914 80.0989H678.704V64.1614C678.704 59.1572 676.812 56.6255 673.064 56.6255C669.844 56.6255 666.843 58.8133 666.843 63.2424V80.0989H660.633V39.3065H666.843V56.1037H666.967C668.924 53.0561 671.759 51.5561 675.377 51.5561C681.296 51.5561 684.914 56.1571 684.914 63.4677V80.0989ZM718.624 67.6122H699.972C700.09 72.9069 703.595 75.8952 708.785 75.8952C711.543 75.8952 714.081 75.4327 716.323 74.573L717.289 78.8894C714.644 80.0396 711.531 80.6148 707.907 80.6148C699.159 80.6148 693.982 75.0888 693.982 66.5212C693.982 57.9477 699.284 51.5027 707.207 51.5027C714.354 51.5027 718.837 56.7974 718.837 64.7958C718.877 65.7397 718.806 66.6851 718.624 67.6122ZM712.924 63.1831C712.924 58.8667 710.748 55.8191 706.774 55.8191C703.204 55.8191 700.381 58.926 699.978 63.1831H712.924Z" fill="white"/>
<defs>
<linearGradient id="paint0_linear_2_42" x1="586.896" y1="238.183" x2="586.896" y2="-616.915" gradientUnits="userSpaceOnUse">
<stop stop-color="#3965FF"/>
<stop offset="0.123" stop-color="#3C65F5" stop-opacity="0.151"/>
<stop offset="0.308" stop-color="#3C65F5" stop-opacity="0.227"/>
<stop offset="0.532" stop-color="#3C65F5" stop-opacity="0.318"/>
<stop offset="0.783" stop-color="#3C65F5" stop-opacity="0.47"/>
<stop offset="1" stop-color="#3C65F5" stop-opacity="0.51"/>
</linearGradient>
</defs>
</svg>
