<svg width="688" height="219" viewBox="0 0 688 219" fill="none" xmlns="http://www.w3.org/2000/svg">
<g clip-path="url(#clip0_1_2)">
<path d="M687.879 193.816C687.879 207.515 676.775 218.621 663.076 218.621H29.1793C15.4805 218.621 4.37549 207.515 4.37549 193.816V24.8025C4.37549 11.1037 15.4805 -0.00127728 29.1793 -0.00127728H663.076C676.775 -0.00127728 687.879 11.1037 687.879 24.8025V193.816Z" fill="#3C65F5"/>
<path d="M318.898 165.119L344.67 98.0107H354.237L381.703 165.119H371.586L363.759 144.794H335.698L328.328 165.119H318.898ZM338.261 137.562H361.012L354.008 118.976C351.872 113.331 350.285 108.692 349.247 105.06C348.393 109.363 347.187 113.636 345.631 117.878L338.261 137.562ZM387.745 165.119V116.504H395.161V123.417C398.732 118.076 403.889 115.406 410.634 115.406C413.563 115.406 416.249 115.94 418.69 117.008C421.162 118.046 423.008 119.419 424.229 121.128C425.45 122.837 426.304 124.866 426.793 127.216C427.098 128.742 427.25 131.412 427.25 135.227V165.119H419.011V135.547C419.011 132.19 418.69 129.688 418.049 128.04C417.408 126.362 416.264 125.034 414.616 124.057C412.999 123.05 411.091 122.547 408.894 122.547C405.384 122.547 402.348 123.661 399.785 125.889C397.252 128.116 395.985 132.343 395.985 138.569V165.119H387.745ZM471.47 165.119V158.985C468.388 163.807 463.856 166.218 457.875 166.218C453.999 166.218 450.428 165.149 447.163 163.013C443.928 160.877 441.41 157.901 439.61 154.087C437.84 150.242 436.955 145.832 436.955 140.857C436.955 136.005 437.764 131.611 439.381 127.674C440.999 123.707 443.425 120.67 446.66 118.564C449.894 116.459 453.511 115.406 457.509 115.406C460.438 115.406 463.047 116.031 465.336 117.283C467.625 118.503 469.487 120.105 470.921 122.089V98.0107H479.115V165.119H471.47ZM445.424 140.857C445.424 147.083 446.736 151.737 449.36 154.819C451.985 157.901 455.082 159.443 458.653 159.443C462.254 159.443 465.306 157.978 467.808 155.048C470.341 152.088 471.608 147.587 471.608 141.544C471.608 134.891 470.326 130.008 467.762 126.896C465.199 123.783 462.04 122.226 458.287 122.226C454.625 122.226 451.558 123.722 449.086 126.713C446.644 129.703 445.424 134.418 445.424 140.857ZM492.024 165.119V116.504H499.44V123.874C501.332 120.426 503.071 118.152 504.658 117.054C506.276 115.955 508.046 115.406 509.968 115.406C512.745 115.406 515.568 116.291 518.437 118.061L515.599 125.705C513.585 124.515 511.57 123.92 509.556 123.92C507.756 123.92 506.138 124.469 504.704 125.568C503.27 126.636 502.247 128.132 501.637 130.054C500.721 132.984 500.264 136.188 500.264 139.667V165.119H492.024ZM520.268 140.812C520.268 131.809 522.77 125.141 527.775 120.807C531.956 117.206 537.053 115.406 543.065 115.406C549.748 115.406 555.211 117.603 559.452 121.998C563.694 126.362 565.815 132.404 565.815 140.125C565.815 146.381 564.869 151.31 562.977 154.911C561.116 158.481 558.384 161.258 554.783 163.242C551.213 165.226 547.306 166.218 543.065 166.218C536.259 166.218 530.751 164.036 526.539 159.671C522.358 155.307 520.268 149.021 520.268 140.812ZM528.737 140.812C528.737 147.037 530.095 151.706 532.811 154.819C535.527 157.901 538.945 159.443 543.065 159.443C547.154 159.443 550.557 157.886 553.273 154.773C555.989 151.661 557.347 146.915 557.347 140.537C557.347 134.525 555.973 129.978 553.227 126.896C550.511 123.783 547.123 122.226 543.065 122.226C538.945 122.226 535.527 123.768 532.811 126.85C530.095 129.932 528.737 134.586 528.737 140.812ZM575.566 107.486V98.0107H583.806V107.486H575.566ZM575.566 165.119V116.504H583.806V165.119H575.566ZM627.934 165.119V158.985C624.852 163.807 620.32 166.218 614.338 166.218C610.463 166.218 606.892 165.149 603.627 163.013C600.392 160.877 597.874 157.901 596.074 154.087C594.304 150.242 593.419 145.832 593.419 140.857C593.419 136.005 594.227 131.611 595.845 127.674C597.462 123.707 599.888 120.67 603.123 118.564C606.358 116.459 609.974 115.406 613.972 115.406C616.902 115.406 619.511 116.031 621.8 117.283C624.089 118.503 625.95 120.105 627.385 122.089V98.0107H635.579V165.119H627.934ZM601.887 140.857C601.887 147.083 603.199 151.737 605.824 154.819C608.448 157.901 611.546 159.443 615.117 159.443C618.718 159.443 621.769 157.978 624.272 155.048C626.805 152.088 628.071 147.587 628.071 141.544C628.071 134.891 626.79 130.008 624.226 126.896C621.663 123.783 618.504 122.226 614.75 122.226C611.088 122.226 608.021 123.722 605.549 126.713C603.108 129.703 601.887 134.418 601.887 140.857Z" fill="white"/>
<mask id="mask0_1_2" style="mask-type:luminance" maskUnits="userSpaceOnUse" x="0" y="1" width="299" height="218">
<path d="M298.11 193.934C298.11 207.633 287.005 218.738 273.307 218.738H24.8027C11.105 218.738 0 207.633 0 193.934V26.05C0 12.3525 11.105 1.2475 24.8027 1.2475H273.307C287.005 1.2475 298.11 12.3525 298.11 26.05V193.934Z" fill="white"/>
</mask>
<g mask="url(#mask0_1_2)">
<path d="M218.865 112.77H90.7006C87.852 112.77 85.5415 115.082 85.5415 117.929V225.407C85.5415 228.259 87.852 230.571 90.7006 230.571H113.55V266.789C113.55 275.195 120.364 282.009 128.766 282.009C137.171 282.009 143.984 275.195 143.984 266.789V230.571H165.268V266.789C165.268 275.195 172.081 282.009 180.484 282.009C188.889 282.009 195.7 275.195 195.7 266.789V230.571H218.865C221.719 230.571 224.029 228.259 224.029 225.407V117.929C224.029 115.082 221.719 112.77 218.865 112.77Z" fill="white"/>
<path d="M63.8422 112.743C55.4395 112.743 48.6255 119.557 48.6255 127.96V189.769C48.6255 198.17 55.4365 204.983 63.8422 204.983C72.2441 204.983 79.0581 198.17 79.0581 189.769V127.96C79.0581 119.557 72.2441 112.743 63.8422 112.743Z" fill="white"/>
</g>
<mask id="mask1_1_2" style="mask-type:luminance" maskUnits="userSpaceOnUse" x="0" y="1" width="299" height="218">
<path d="M298.11 193.934C298.11 207.633 287.005 218.738 273.307 218.738H24.8027C11.105 218.738 0 207.633 0 193.934V26.05C0 12.3525 11.105 1.2475 24.8027 1.2475H273.307C287.005 1.2475 298.11 12.3525 298.11 26.05V193.934Z" fill="white"/>
</mask>
<g mask="url(#mask1_1_2)">
<mask id="mask2_1_2" style="mask-type:luminance" maskUnits="userSpaceOnUse" x="48" y="28" width="214" height="255">
<path d="M48.6255 28.985H261.132V282.739H48.6255V28.985Z" fill="white"/>
</mask>
<g mask="url(#mask2_1_2)">
<path d="M245.727 112.743C237.321 112.743 230.51 119.557 230.51 127.96V189.769C230.51 198.17 237.321 204.983 245.727 204.983C254.13 204.983 260.944 198.17 260.944 189.769V127.96C260.944 119.557 254.13 112.743 245.727 112.743Z" fill="white"/>
<path d="M122.947 70.4675C126.178 70.4675 128.796 73.0863 128.796 76.3175C128.796 79.5475 126.178 82.1663 122.947 82.1663C119.719 82.1663 117.097 79.5475 117.097 76.3175C117.097 73.0863 119.716 70.4675 122.947 70.4675ZM192.165 76.3175C192.165 79.5475 189.549 82.1663 186.319 82.1663C183.088 82.1663 180.469 79.5475 180.469 76.3175C180.469 73.0863 183.088 70.4675 186.319 70.4675C189.549 70.4675 192.165 73.0863 192.165 76.3175ZM91.7398 105.231H217.527C220.806 105.231 223.255 102.208 222.579 98.9953C218.42 79.1663 205.796 62.4538 188.663 52.7988L199.415 33.4C200.144 32.0863 199.669 30.4288 198.355 29.7038C197.037 28.9713 195.388 29.45 194.659 30.7625L183.825 50.3088C174.95 46.1925 165.061 43.8925 154.635 43.8925C144.204 43.8925 134.315 46.1925 125.443 50.3088L114.607 30.76C113.878 29.4463 112.224 28.975 110.91 29.7013C109.597 30.4288 109.123 32.0838 109.85 33.3963L120.603 52.7988C103.472 62.4538 90.8443 79.1663 86.6846 98.9953C86.0103 102.208 88.4585 105.231 91.7398 105.231Z" fill="white"/>
</g>
</g>
<path d="M322.267 76.2438V44.9266H333.054C335.49 44.9266 337.348 45.0762 338.63 45.3752C340.424 45.7882 341.955 46.5359 343.223 47.6183C344.875 49.0139 346.107 50.8013 346.919 52.9802C347.745 55.1449 348.158 57.623 348.158 60.4143C348.158 62.7926 347.88 64.9004 347.324 66.7375C346.769 68.5747 346.057 70.0985 345.188 71.3091C344.32 72.5054 343.365 73.4524 342.326 74.1503C341.3 74.8338 340.054 75.3537 338.587 75.7097C337.135 76.0657 335.461 76.2438 333.567 76.2438H322.267ZM326.411 72.5481H333.097C335.162 72.5481 336.779 72.3558 337.946 71.9713C339.128 71.5868 340.068 71.0456 340.766 70.3478C341.749 69.3651 342.511 68.0478 343.052 66.3957C343.607 64.7295 343.885 62.7143 343.885 60.3502C343.885 57.0747 343.344 54.561 342.262 52.8093C341.194 51.0434 339.89 49.8613 338.352 49.2632C337.241 48.8359 335.454 48.6223 332.99 48.6223H326.411V72.5481ZM351.96 64.9004C351.96 60.6991 353.128 57.5873 355.464 55.565C357.415 53.8845 359.793 53.0443 362.599 53.0443C365.717 53.0443 368.267 54.0697 370.246 56.1205C372.226 58.157 373.216 60.9768 373.216 64.5799C373.216 67.4995 372.774 69.7995 371.891 71.48C371.022 73.1462 369.748 74.4422 368.067 75.3679C366.401 76.2936 364.578 76.7565 362.599 76.7565C359.423 76.7565 356.852 75.7382 354.887 73.7016C352.936 71.6651 351.96 68.7313 351.96 64.9004ZM355.912 64.9004C355.912 67.8056 356.546 69.9846 357.813 71.4372C359.081 72.8756 360.676 73.5948 362.599 73.5948C364.507 73.5948 366.095 72.8685 367.362 71.4159C368.63 69.9632 369.264 67.7487 369.264 64.7722C369.264 61.9666 368.623 59.8446 367.341 58.4062C366.073 56.9536 364.493 56.2273 362.599 56.2273C360.676 56.2273 359.081 56.9465 357.813 58.3849C356.546 59.8233 355.912 61.9951 355.912 64.9004ZM381.931 76.2438L374.989 53.557H378.962L382.572 66.6521L383.918 71.5227C383.975 71.2806 384.367 69.7211 385.093 66.8443L388.703 53.557H392.655L396.052 66.7162L397.184 71.0527L398.487 66.6734L402.375 53.557H406.114L399.021 76.2438H395.027L391.416 62.6573L390.54 58.7908L385.948 76.2438H381.931ZM409.361 76.2438V53.557H412.821V56.7827C414.488 54.2904 416.894 53.0443 420.042 53.0443C421.409 53.0443 422.662 53.2935 423.802 53.792C424.955 54.2762 425.817 54.9171 426.386 55.7146C426.956 56.5121 427.355 57.4592 427.583 58.5558C427.725 59.2678 427.796 60.514 427.796 62.2942V76.2438H423.951V62.4437C423.951 60.8771 423.802 59.7093 423.502 58.9403C423.203 58.157 422.669 57.5375 421.9 57.0818C421.145 56.6118 420.255 56.3768 419.23 56.3768C417.592 56.3768 416.175 56.8966 414.979 57.9363C413.797 58.9759 413.206 60.9483 413.206 63.8536V76.2438H409.361ZM433.628 76.2438V44.9266H437.473V76.2438H433.628ZM442.024 64.9004C442.024 60.6991 443.191 57.5873 445.527 55.565C447.478 53.8845 449.856 53.0443 452.662 53.0443C455.781 53.0443 458.33 54.0697 460.31 56.1205C462.289 58.157 463.279 60.9768 463.279 64.5799C463.279 67.4995 462.838 69.7995 461.955 71.48C461.086 73.1462 459.811 74.4422 458.131 75.3679C456.465 76.2936 454.642 76.7565 452.662 76.7565C449.486 76.7565 446.916 75.7382 444.95 73.7016C442.999 71.6651 442.024 68.7313 442.024 64.9004ZM445.976 64.9004C445.976 67.8056 446.609 69.9846 447.877 71.4372C449.144 72.8756 450.739 73.5948 452.662 73.5948C454.57 73.5948 456.158 72.8685 457.426 71.4159C458.693 69.9632 459.327 67.7487 459.327 64.7722C459.327 61.9666 458.686 59.8446 457.404 58.4062C456.137 56.9536 454.556 56.2273 452.662 56.2273C450.739 56.2273 449.144 56.9465 447.877 58.3849C446.609 59.8233 445.976 61.9951 445.976 64.9004ZM482.612 73.4453C481.188 74.6558 479.814 75.5103 478.489 76.0088C477.179 76.5072 475.769 76.7565 474.259 76.7565C471.767 76.7565 469.852 76.1512 468.513 74.9407C467.174 73.7159 466.505 72.1564 466.505 70.2623C466.505 69.1515 466.754 68.1403 467.252 67.2289C467.765 66.3032 468.427 65.5626 469.239 65.0072C470.065 64.4518 470.991 64.0316 472.016 63.7468C472.771 63.5474 473.91 63.3552 475.434 63.17C478.539 62.7997 480.825 62.3583 482.292 61.8456C482.306 61.3186 482.313 60.984 482.313 60.8415C482.313 59.275 481.95 58.1712 481.223 57.5304C480.241 56.6616 478.781 56.2273 476.844 56.2273C475.035 56.2273 473.697 56.5477 472.828 57.1886C471.974 57.8152 471.34 58.9332 470.927 60.5425L467.167 60.0298C467.509 58.4205 468.071 57.1245 468.855 56.1418C469.638 55.1449 470.77 54.383 472.251 53.8561C473.732 53.3149 475.448 53.0443 477.4 53.0443C479.336 53.0443 480.91 53.2722 482.121 53.7279C483.331 54.1836 484.221 54.7604 484.791 55.4582C485.361 56.1418 485.759 57.0106 485.987 58.0644C486.115 58.7195 486.179 59.9016 486.179 61.6106V66.7375C486.179 70.3122 486.258 72.5766 486.414 73.5307C486.585 74.4707 486.913 75.375 487.397 76.2438H483.381C482.982 75.4462 482.726 74.5134 482.612 73.4453ZM482.292 64.8577C480.896 65.4273 478.802 65.9115 476.011 66.3103C474.43 66.5382 473.312 66.7945 472.657 67.0793C472.002 67.3642 471.496 67.7843 471.14 68.3397C470.784 68.8809 470.606 69.4862 470.606 70.1555C470.606 71.1809 470.991 72.0354 471.76 72.719C472.543 73.4026 473.683 73.7444 475.178 73.7444C476.659 73.7444 477.976 73.4239 479.13 72.7831C480.283 72.128 481.131 71.2379 481.672 70.1128C482.085 69.244 482.292 67.9623 482.292 66.2676V64.8577ZM506.88 76.2438V73.3812C505.441 75.6314 503.326 76.7565 500.535 76.7565C498.726 76.7565 497.06 76.258 495.536 75.2611C494.027 74.2642 492.852 72.8756 492.011 71.0954C491.185 69.301 490.772 67.2431 490.772 64.9217C490.772 62.6573 491.15 60.6066 491.905 58.7694C492.659 56.918 493.792 55.501 495.301 54.5183C496.811 53.5356 498.498 53.0443 500.364 53.0443C501.731 53.0443 502.949 53.3362 504.017 53.9202C505.085 54.4898 505.954 55.2375 506.623 56.1632V44.9266H510.447V76.2438H506.88ZM494.724 64.9217C494.724 67.827 495.337 69.9988 496.562 71.4372C497.786 72.8756 499.232 73.5948 500.898 73.5948C502.579 73.5948 504.003 72.9112 505.171 71.5441C506.353 70.1626 506.944 68.062 506.944 65.2422C506.944 62.1375 506.345 59.8589 505.149 58.4062C503.953 56.9536 502.479 56.2273 500.727 56.2273C499.018 56.2273 497.587 56.9251 496.433 58.3208C495.294 59.7165 494.724 61.9168 494.724 64.9217ZM529.609 76.2438V56.5477H526.212V53.557H529.609V51.1431C529.609 49.6192 529.744 48.487 530.015 47.7464C530.385 46.7495 531.033 45.9449 531.959 45.3325C532.899 44.7059 534.209 44.3926 535.89 44.3926C536.972 44.3926 538.168 44.5207 539.478 44.7771L538.902 48.131C538.104 47.9886 537.349 47.9173 536.637 47.9173C535.469 47.9173 534.643 48.1666 534.159 48.665C533.675 49.1635 533.433 50.0963 533.433 51.4635V53.557H537.855V56.5477H533.433V76.2438H529.609ZM539.436 64.9004C539.436 60.6991 540.604 57.5873 542.939 55.565C544.89 53.8845 547.269 53.0443 550.074 53.0443C553.193 53.0443 555.742 54.0697 557.722 56.1205C559.701 58.157 560.691 60.9768 560.691 64.5799C560.691 67.4995 560.25 69.7995 559.367 71.48C558.498 73.1462 557.223 74.4422 555.543 75.3679C553.877 76.2936 552.054 76.7565 550.074 76.7565C546.898 76.7565 544.328 75.7382 542.362 73.7016C540.411 71.6651 539.436 68.7313 539.436 64.9004ZM543.388 64.9004C543.388 67.8056 544.021 69.9846 545.289 71.4372C546.556 72.8756 548.152 73.5948 550.074 73.5948C551.982 73.5948 553.57 72.8685 554.838 71.4159C556.105 69.9632 556.739 67.7487 556.739 64.7722C556.739 61.9666 556.098 59.8446 554.817 58.4062C553.549 56.9536 551.968 56.2273 550.074 56.2273C548.152 56.2273 546.556 56.9465 545.289 58.3849C544.021 59.8233 543.388 61.9951 543.388 64.9004ZM565.177 76.2438V53.557H568.638V56.9963C569.521 55.387 570.333 54.326 571.073 53.8133C571.828 53.3006 572.654 53.0443 573.551 53.0443C574.847 53.0443 576.165 53.4573 577.503 54.2833L576.179 57.8508C575.239 57.2954 574.299 57.0177 573.359 57.0177C572.519 57.0177 571.764 57.274 571.095 57.7867C570.425 58.2852 569.948 58.983 569.663 59.8802C569.236 61.2474 569.022 62.7428 569.022 64.3663V76.2438H565.177Z" fill="white"/>
</g>
<defs>
<clipPath id="clip0_1_2">
<rect width="687.875" height="218.738" fill="white"/>
</clipPath>
</defs>
</svg>
