<svg width="8" height="14" viewBox="0 0 8 14" fill="none" xmlns="http://www.w3.org/2000/svg">
<path d="M5.58804 7L0.293835 1.70411C0.200744 1.61152 0.126867 1.50142 0.0764556 1.38015C0.0260439 1.25888 9.15527e-05 1.12884 9.15527e-05 0.997499C9.15527e-05 0.866159 0.0260439 0.736116 0.0764556 0.614848C0.126867 0.493581 0.200744 0.383483 0.293835 0.290889C0.482794 0.105158 0.737081 0.00109161 1.00196 0.00109161C1.26683 0.00109161 1.52112 0.105158 1.71008 0.290889L7.70853 6.28911C7.88998 6.47109 7.99431 6.71607 7.99981 6.97307C8.00531 7.23007 7.91156 7.4793 7.73806 7.66889L1.71397 13.7083C1.52508 13.8884 1.27336 13.9876 1.01247 13.9846C0.751585 13.9816 0.502178 13.8768 0.317438 13.6924C0.132697 13.5081 0.0272408 13.2588 0.0235575 12.9978C0.0198743 12.7368 0.118255 12.4846 0.297721 12.2951L5.58804 7Z" fill="white"/>
</svg>
