<svg width="30" height="30" viewBox="0 0 30 30" fill="none" xmlns="http://www.w3.org/2000/svg">
<g clip-path="url(#clip0_6_26)">
<path d="M17.2406 1.01345C17.2406 0.455488 17.785 0 18.4629 0C19.1408 0 19.6857 0.453119 19.6857 1.01345V5.4469C19.6857 6.00486 19.1408 6.46034 18.4629 6.46034C17.785 6.46034 17.2406 6.00723 17.2406 5.4469V1.01345ZM25.7379 21.4612V22.6423C25.7379 22.9201 25.5088 23.1523 25.234 23.1523H23.2277V25.1815C23.2277 25.4582 22.998 25.6903 22.7232 25.6903H21.5537C21.2801 25.6903 21.0504 25.4617 21.0504 25.1815V23.1523H19.0424C18.7676 23.1523 18.5379 22.9231 18.5379 22.6423V21.4612C18.5379 21.1805 18.7652 20.9513 19.0424 20.9513H21.0504V18.922C21.0504 18.6418 21.2766 18.4132 21.5537 18.4132H22.7232C23.001 18.4132 23.2277 18.6454 23.2277 18.922V20.9513H25.234C25.5117 20.9513 25.7379 21.1864 25.7379 21.4612ZM22.1379 14.1035C24.3047 14.1035 26.2723 14.9944 27.6943 16.4343C29.1187 17.87 30 19.8573 30 22.0524C30 24.2433 29.1188 26.2317 27.6973 27.6693C26.2723 29.1092 24.3053 30 22.1379 30C19.9682 30 18.0035 29.1092 16.5809 27.6722C15.1559 26.2347 14.2758 24.2451 14.2758 22.0524C14.2758 19.8573 15.157 17.87 16.5791 16.4319L16.6195 16.3946C18.0398 14.979 19.9904 14.1035 22.1379 14.1035ZM26.7516 17.3855C25.5744 16.1944 23.9414 15.4558 22.1379 15.4558C20.3508 15.4558 18.7313 16.1814 17.5564 17.3524L17.5242 17.3879C16.3436 18.5808 15.6129 20.231 15.6129 22.0524C15.6129 23.8737 16.343 25.5233 17.5236 26.7168C18.7014 27.9091 20.335 28.6478 22.1379 28.6478C23.9402 28.6478 25.5744 27.9091 26.7533 26.718C27.9316 25.5263 28.6623 23.8743 28.6623 22.0524C28.6623 20.231 27.9316 18.5808 26.7516 17.3855ZM3.32871 14.3505C3.25957 14.3505 3.19746 14.0425 3.19746 13.6652C3.19746 13.2873 3.25254 12.9823 3.32871 12.9823H6.66504C6.73477 12.9823 6.79688 13.2903 6.79688 13.6652C6.79688 14.0437 6.7418 14.3505 6.66504 14.3505H3.32871ZM8.64785 14.3505C8.57812 14.3505 8.5166 14.0425 8.5166 13.6652C8.5166 13.2873 8.57109 12.9823 8.64785 12.9823H11.9842C12.0533 12.9823 12.1154 13.2903 12.1154 13.6652C12.1154 14.0437 12.0604 14.3505 11.9842 14.3505H8.64785ZM13.9664 14.3505C13.8973 14.3505 13.8352 14.0425 13.8352 13.6652C13.8352 13.2873 13.8896 12.9823 13.9664 12.9823H17.3027C17.3719 12.9823 17.434 13.2873 17.434 13.6629C17.1001 13.8732 16.7785 14.1028 16.4707 14.3505H13.9664ZM3.33633 18.274C3.26719 18.274 3.20508 17.966 3.20508 17.5887C3.20508 17.2102 3.25957 16.9028 3.33633 16.9028H6.67266C6.7418 16.9028 6.80391 17.2102 6.80391 17.5887C6.80391 17.966 6.74941 18.274 6.67266 18.274H3.33633ZM8.65488 18.274C8.58574 18.274 8.52363 17.966 8.52363 17.5887C8.52363 17.2102 8.57813 16.9028 8.65488 16.9028H11.9912C12.0604 16.9028 12.1225 17.2102 12.1225 17.5887C12.1225 17.966 12.068 18.274 11.9912 18.274H8.65488ZM3.34336 22.1998C3.27422 22.1998 3.21211 21.8918 3.21211 21.5134C3.21211 21.1366 3.26719 20.8286 3.34336 20.8286H6.67969C6.74941 20.8286 6.81152 21.1366 6.81152 21.5134C6.81152 21.8918 6.75645 22.1998 6.67969 22.1998H3.34336ZM8.6625 22.1998C8.59277 22.1998 8.53066 21.8918 8.53066 21.5134C8.53066 21.1366 8.58574 20.8286 8.6625 20.8286H11.9988C12.068 20.8286 12.1301 21.1366 12.1301 21.5134C12.1301 21.8918 12.075 22.1998 11.9988 22.1998H8.6625ZM6.25957 1.01345C6.25957 0.455488 6.80391 0 7.48184 0C8.15977 0 8.7041 0.453119 8.7041 1.01345V5.4469C8.7041 6.00486 8.15801 6.46034 7.48184 6.46034C6.80391 6.46034 6.25957 6.00723 6.25957 5.4469V1.01345ZM1.34648 9.69259H24.6311V4.58805C24.6311 4.2451 24.3539 3.96553 24.0146 3.96553H21.7822C21.4078 3.96553 21.1043 3.65753 21.1043 3.28022C21.1043 2.90233 21.4078 2.59433 21.7822 2.59433H24.0146C25.1039 2.59433 25.9893 3.4899 25.9893 4.59101V12.6944C25.5445 12.5392 25.0863 12.4143 24.6158 12.3219V11.0555H24.6311H1.34648V24.2735C1.34648 24.6159 1.62305 24.8961 1.9623 24.8961H13.0283C13.1543 25.3711 13.3131 25.8343 13.5041 26.2797H1.9752C0.886523 26.2797 0 25.3871 0 24.286V4.59338C0 3.49168 0.884766 2.59669 1.9752 2.59669H4.3582C4.73203 2.59669 5.03672 2.90529 5.03672 3.282C5.03672 3.66049 4.73203 3.96849 4.3582 3.96849H1.9752C1.63594 3.96849 1.3582 4.24688 1.3582 4.59101V9.69437H1.34648V9.69259ZM10.6594 3.96553C10.2861 3.96553 9.98145 3.65753 9.98145 3.28022C9.98145 2.90233 10.2861 2.59433 10.6594 2.59433H15.2033C15.5777 2.59433 15.8824 2.90233 15.8824 3.28022C15.8824 3.65753 15.5777 3.96553 15.2033 3.96553H10.6594Z" fill="#909DC9"/>
</g>
<defs>
<clipPath id="clip0_6_26">
<rect width="30" height="30" fill="white"/>
</clipPath>
</defs>
</svg>
