<svg width="30" height="31" viewBox="0 0 30 31" fill="none" xmlns="http://www.w3.org/2000/svg">
<path d="M17.7407 1.27165C20.3679 1.00861 19.025 4.25177 21.7938 3.59119L20.2824 6.79549C17.6113 7.48896 18.7076 4.09335 16.2342 4.464L17.7407 1.27165ZM14.989 7.39032C15.1526 7.39032 15.3137 7.39032 15.4773 7.39331L14.989 6.35908L14.5007 7.39331C14.6643 7.39032 14.8254 7.39032 14.989 7.39032ZM16.0096 7.39929C19.6549 7.47401 22.9438 7.94629 25.3878 8.66965C28.1541 9.48866 29.8901 10.6992 29.9731 12.1161C29.9902 12.1729 30 12.2356 30 12.2984V25.6865C30 25.8599 29.9316 26.0124 29.8242 26.105C27.6927 28.3229 23.8423 29.4558 19.6036 29.8444C14.2809 30.3286 8.31122 29.6471 4.41686 28.4694C3.29861 28.1316 2.34638 27.752 1.61878 27.3425C0.869211 26.921 0.341825 26.4517 0.0952226 25.9496C0.0537153 25.8659 0.0366241 25.7762 0.0366241 25.6865V12.5883C0.012208 12.4688 0 12.3492 0 12.2267C0 10.765 1.75307 9.51257 4.59022 8.67264C7.03426 7.94928 10.3207 7.477 13.9684 7.40228L14.7253 5.80012L12.4742 1.02655L12.4913 1.01459C12.3496 1.0116 12.2129 0.921928 12.1372 0.760517C12.0225 0.5184 12.0908 0.207535 12.2886 0.0700368C12.4864 -0.0704504 12.7403 0.0132441 12.8526 0.25536C12.9283 0.416771 12.9234 0.605084 12.8551 0.757528L12.8721 0.745571L14.989 5.23519L17.1059 0.745571L17.123 0.757528C17.0546 0.608073 17.0497 0.416771 17.1254 0.25536C17.2402 0.0132441 17.4917 -0.0704504 17.6894 0.0700368C17.8872 0.210524 17.9556 0.5184 17.8408 0.760517C17.7651 0.921928 17.6284 1.0116 17.4868 1.01459L17.5039 1.02655L15.2527 5.79713L16.0096 7.39929ZM12.2373 1.27165C9.6126 1.00861 10.953 4.25177 8.18426 3.59119L9.69561 6.79549C12.3667 7.48896 11.2704 4.09335 13.7438 4.464L12.2373 1.27165ZM14.989 12.2267C15.5237 12.2267 16.0487 12.2356 16.5614 12.2506L18.3047 8.53813C17.2402 8.4634 16.1317 8.42454 14.989 8.42454C13.9294 8.42454 12.899 8.45742 11.9053 8.52318L13.7096 12.2416C14.1296 12.2326 14.5568 12.2267 14.989 12.2267ZM17.5112 12.2864C19.1104 12.3642 20.5705 12.5166 21.7962 12.7229L24.9483 9.60225C23.354 9.15089 21.4056 8.80715 19.2374 8.60987L17.5112 12.2864ZM22.9145 12.9411C24.6114 13.3237 25.6466 13.8288 25.6466 14.3818C25.6466 14.4775 25.6149 14.5731 25.5538 14.6658C27.7757 13.9633 29.1332 13.0995 29.1332 12.2237C29.1332 11.4047 27.9417 10.5946 25.9665 9.91909L22.9145 12.9411ZM4.42419 14.6688C4.36315 14.5761 4.33141 14.4804 4.33141 14.3848C4.33141 13.7989 5.48873 13.2669 7.36876 12.8783L4.23374 9.84735C2.12664 10.5378 0.844795 11.3778 0.844795 12.2267C0.844795 12.2715 0.847237 12.3163 0.854562 12.3612C0.861887 12.3881 0.869211 12.418 0.874095 12.4509C1.08163 13.2459 2.39033 14.0231 4.42419 14.6688ZM8.51143 12.672C9.73956 12.4807 11.1801 12.3432 12.7476 12.2745L10.9628 8.59193C8.81419 8.77726 6.87556 9.10307 5.27142 9.53649L8.48946 12.6451C8.49434 12.6541 8.50411 12.6631 8.51143 12.672ZM18.4707 21.3823C18.566 21.6034 18.6197 21.8545 18.6197 22.1176V24.73C20.8367 24.5626 22.9804 24.195 24.8873 23.5972C26.5232 23.083 27.9808 22.3985 29.1576 21.5168V18.3154C26.4499 20.1448 22.5555 21.0923 18.4707 21.3823ZM18.6197 25.7613V28.8908C18.9298 28.8699 19.2374 28.846 19.545 28.8191H19.5475C23.5444 28.4544 27.158 27.4292 29.1625 25.4504V22.7094C28.0003 23.4955 26.6184 24.1173 25.0997 24.5955C23.1269 25.2143 20.9197 25.5909 18.6465 25.7613C18.6368 25.7613 18.627 25.7613 18.6197 25.7613ZM15.6312 28.9745V25.4235C15.6312 25.0887 15.409 24.8167 15.1355 24.8167C14.862 24.8167 14.6399 25.0887 14.6399 25.4235V28.9536C14.9695 28.9656 15.3015 28.9716 15.6312 28.9745ZM11.6538 28.7683V25.6836C11.644 25.6836 11.6318 25.6836 11.622 25.6836C9.12428 25.4474 6.75592 25.005 4.7709 24.4072C3.1985 23.9319 1.86294 23.361 0.878978 22.7154V25.5311C1.06454 25.8151 1.44055 26.111 1.97038 26.4099C2.6467 26.7895 3.55009 27.1482 4.61952 27.474C6.55571 28.0569 9.01441 28.5172 11.6538 28.7683ZM11.6538 24.6493V22.1176C11.6538 21.8216 11.7197 21.5467 11.8369 21.3075C7.2711 20.901 3.13014 19.795 0.881419 18.3214V21.5227C1.80435 22.2401 3.23024 22.8798 4.97355 23.4029C6.89998 23.9857 9.20973 24.4192 11.6538 24.6493ZM0.878978 17.1348C3.38895 19.0896 9.47587 20.4497 15.6482 20.4497C20.8098 20.4497 25.9982 19.4931 29.1576 17.1258V13.8856C28.3788 14.6359 27.0725 15.2815 25.3878 15.7807C22.7191 16.5728 19.0421 17.063 14.989 17.063C10.9359 17.063 7.25889 16.5728 4.59022 15.7807C2.94702 15.2935 1.66517 14.6688 0.878978 13.9424V17.1348Z" fill="#909DC9"/>
</svg>
