<svg xmlns="http://www.w3.org/2000/svg" width="32" height="32" viewBox="0 0 32 32">
  <g id="Group_18242" data-name="Group 18242" transform="translate(-3985 2297)">
    <rect id="Rectangle_7131" data-name="Rectangle 7131" width="32" height="32" rx="3" transform="translate(3985 -2297)" fill="#fff23e"/>
    <path id="live-support" d="M144.664,85.178a16.117,16.117,0,0,0-.161-2.742,3.107,3.107,0,0,0-1.975-2.658l-.132-.061a20.885,20.885,0,0,0-2.719-.913c-.537-.159-1.075-.323-1.617-.484a.4.4,0,0,0-.011.069l.019.143a3.723,3.723,0,0,1-.159,1.774,8.585,8.585,0,0,1-2.954,3.8.331.331,0,0,1-.453,0,8.633,8.633,0,0,1-2.952-3.8,2.624,2.624,0,0,1-.18-.929,6.732,6.732,0,0,1,.045-1.056.618.618,0,0,0-.071.011c-1.061.32-2.123.633-3.179.966a7.043,7.043,0,0,0-2.2,1.069,1.809,1.809,0,0,0-.6.768,6.445,6.445,0,0,0-.431,1.549c-.05.347-.087.7-.13,1.043,0,.559.008,1.117-.005,1.676,0,.151.029.193.188.193q9.847-.008,19.692-.005c-.005-.138-.011-.278-.011-.413ZM126.822,72.9c0,.111,0,.228,0,.344a1.246,1.246,0,0,0,1.138,1.194,7.151,7.151,0,0,0,1.326.024.622.622,0,0,0,.357-.241.518.518,0,0,0,.058-.32v-.826a5.327,5.327,0,0,0,2.292,2.586,4.3,4.3,0,0,0,1.051.469,5.9,5.9,0,0,1-1.2-6.327c.064.034.085.1.119.156a5.737,5.737,0,0,0,4.442,2.578,5.644,5.644,0,0,0,2.007-.188c.156-.042.188.011.169.148-.021.164-.032.328-.058.492a5.173,5.173,0,0,1-1.522,3.068l-.079.008a.827.827,0,0,0-.7.9.941.941,0,0,0,.977.712c.453.013.905.008,1.358,0a.939.939,0,0,0,.7-.241.679.679,0,0,1,.524-.188,6.751,6.751,0,0,0,2-.379,3.287,3.287,0,0,0,2.459-2.772,22.4,22.4,0,0,0,.016-2.271c0-.6-.238-.863-.948-1.014a1.151,1.151,0,0,0-.011-.381c-.042-.122-.122-.283-.238-.326a.281.281,0,0,1-.214-.334.967.967,0,0,0-.447-.977.888.888,0,0,1-.537-.937.231.231,0,0,0-.005-.042,5.539,5.539,0,0,0-2.112-3.679,7.5,7.5,0,0,0-5.824-1.649,6.9,6.9,0,0,0-5.482,3.415,5,5,0,0,0-.664,2.451c0,.111-.048.164-.167.217a1.2,1.2,0,0,0-.752.884c-.026.14-.013.289-.029.431-.008.053-.037.14-.077.148a.48.48,0,0,0-.389.566c.008.566,0,1.13,0,1.694C126.356,72.671,126.423,72.756,126.822,72.9Zm16.007.426c.024-.273.048-.5.384-.609.011-.005.029,0,.05,0,0,.4,0,.8,0,1.2a2,2,0,0,1-.86,1.644,4.938,4.938,0,0,1-2.885.855.287.287,0,0,1-.177-.079,1.069,1.069,0,0,0-.791-.3c-.445.005-.889,0-1.334,0a5.919,5.919,0,0,0,1.964-1.281,5.2,5.2,0,0,0,.789-1.009v.225c0,.334.2.492.582.5h.8A1.317,1.317,0,0,0,142.829,73.327Zm-1.837-4.053c.159,0,.3-.011.442,0a.416.416,0,0,1,.421.466c0,1.016,0,2.036,0,3.052,0,.064-.005.124,0,.185.048.654-.281.68-.863.627Zm-9.2-5.284a6.617,6.617,0,0,1,6.626.294,4.8,4.8,0,0,1,2.5,4.137,1.79,1.79,0,0,1-.251.011.665.665,0,0,0-.543.138,5.379,5.379,0,0,0-.551-.823,5.957,5.957,0,0,0-8.656-.516,5.793,5.793,0,0,0-1.215,1.71c0-.042-.005-.085-.011-.122-.04-.246-.212-.376-.506-.381-.135,0-.27,0-.437,0A5.007,5.007,0,0,1,131.791,63.991Zm-3.957,5.8c0-.408.135-.521.622-.519h.236v4.336a.272.272,0,0,1-.066.011c-.688.034-.791-.05-.791-.633Z" transform="translate(3866.206 -2355.43)" fill="#f71a2f"/>
  </g>
</svg>
