<svg width="30" height="30" viewBox="0 0 30 30" fill="none" xmlns="http://www.w3.org/2000/svg">
<g clip-path="url(#clip0_1_6)">
<path d="M9.68756 12.727L12.9622 15.253C13.0883 16.2714 13.9467 17.0633 15 17.0633C16.1398 17.0633 17.0633 16.1393 17.0633 15C17.0633 14.9558 17.0531 14.9149 17.0503 14.8712L21.8494 9.1937C22.1847 8.81794 22.1903 8.27665 21.8638 7.98643C21.5369 7.69534 21.0007 7.76513 20.6664 8.14083L15.9505 13.179C15.6649 13.0292 15.3446 12.9367 15 12.9367C14.6307 12.9367 14.2895 13.0413 13.9899 13.2111L10.9064 11.064C10.5088 10.771 9.91256 10.9068 9.57541 11.3663C9.23926 11.8247 9.28854 12.4344 9.68756 12.727Z" fill="#909DC9"/>
<path d="M15 0C14.3425 0 13.8096 0.532969 13.8096 1.19051C13.8096 1.84805 14.3425 2.38096 15 2.38096C18.4887 2.38143 21.6355 3.79143 23.923 6.07699C26.2086 8.36402 27.6186 11.5113 27.619 15C27.6186 18.4887 26.2086 21.6355 23.923 23.923C21.6355 26.2086 18.4887 27.6186 15 27.619C11.5114 27.6186 8.36402 26.2086 6.07705 23.923C3.79143 21.6355 2.38143 18.4887 2.38096 15C2.38143 12.4651 3.1292 10.1112 4.4141 8.13574L5.519 8.96156C5.63854 9.05086 5.79662 9.07318 5.9366 9.02016C6.07611 8.96719 6.18029 8.84766 6.211 8.7007L6.95455 5.18373C7.08709 4.95627 7.14381 4.69494 7.1117 4.43824L7.44791 2.84877C7.48371 2.68143 7.41814 2.50928 7.28186 2.4065C7.14463 2.30467 6.961 2.29072 6.81029 2.37258L1.54939 5.21672C1.41732 5.28879 1.33131 5.4218 1.32064 5.57104C1.30945 5.71986 1.37549 5.86494 1.49549 5.95471L2.50178 6.70664C0.922617 9.08297 -0.00041002 11.9359 1.36635e-07 15C0.000937637 23.2849 6.71508 29.9991 15 30C23.285 29.9991 29.9991 23.2849 30 15C29.9991 6.71508 23.285 0.0009375 15 0Z" fill="#909DC9"/>
</g>
<defs>
<clipPath id="clip0_1_6">
<rect width="30" height="30" fill="white"/>
</clipPath>
</defs>
</svg>
